<?xml version="1.0" encoding="UTF-8" standalone="no"?>
<!-- Created with Inkscape (http://www.inkscape.org/) -->

<svg
   width="210mm"
   height="297mm"
   viewBox="0 0 210 297"
   version="1.1"
   id="svg1"
   xml:space="preserve"
   inkscape:version="1.3 (0e150ed6c4, 2023-07-21)"
   sodipodi:docname="drawing.svg"
   inkscape:export-filename="drawing-1.svg"
   inkscape:export-xdpi="96"
   inkscape:export-ydpi="96"
   xmlns:inkscape="http://www.inkscape.org/namespaces/inkscape"
   xmlns:sodipodi="http://sodipodi.sourceforge.net/DTD/sodipodi-0.dtd"
   xmlns="http://www.w3.org/2000/svg"
   xmlns:svg="http://www.w3.org/2000/svg"><sodipodi:namedview
     id="namedview1"
     pagecolor="#ffffff"
     bordercolor="#000000"
     borderopacity="0.25"
     inkscape:showpageshadow="2"
     inkscape:pageopacity="0.0"
     inkscape:pagecheckerboard="0"
     inkscape:deskcolor="#d1d1d1"
     inkscape:document-units="mm"
     inkscape:zoom="2.0000001"
     inkscape:cx="416.49998"
     inkscape:cy="216.99999"
     inkscape:window-width="1912"
     inkscape:window-height="2106"
     inkscape:window-x="0"
     inkscape:window-y="0"
     inkscape:window-maximized="1"
     inkscape:current-layer="layer1"
     showguides="true" /><defs
     id="defs1"><style
   type="text/css"
   id="style1">&#10;    .fil0 {fill:black}&#10;  </style>&#10;  &#10;  &#10;  &#10; <clipPath
   clipPathUnits="userSpaceOnUse"
   id="clipPath16"><path
     d="m 0,1000 1000,0 L 1000,0 0,0 0,1000 Z"
     id="path18"
     inkscape:connector-curvature="0" /></clipPath><clipPath
   clipPathUnits="userSpaceOnUse"
   id="clipPath4"><g
     id="g5"
     transform="matrix(18.354181,0,0,-18.354181,-1343.2527,991.48997)"><path
       d="m 43.364656,31.481655 h 54.4835 v 54.4835 h -54.4835 z"
       id="path4"
       inkscape:connector-curvature="0"
       style="stroke-width:0.0544835" /></g></clipPath><clipPath
   clipPathUnits="userSpaceOnUse"
   id="clipPath5"><g
     id="g6"
     transform="matrix(18.354181,0,0,-18.354181,-1373.9927,1022.42)"><path
       d="m 43.364656,31.481655 h 54.4835 v 54.4835 h -54.4835 z"
       id="path5"
       inkscape:connector-curvature="0"
       style="stroke-width:0.0544835" /></g></clipPath><clipPath
   clipPathUnits="userSpaceOnUse"
   id="clipPath6"><g
     id="g7"
     transform="matrix(18.354181,0,0,-18.354181,-1386.5727,1061.19)"><path
       d="m 43.364656,31.481655 h 54.4835 v 54.4835 h -54.4835 z"
       id="path6"
       inkscape:connector-curvature="0"
       style="stroke-width:0.0544835" /></g></clipPath><clipPath
   clipPathUnits="userSpaceOnUse"
   id="clipPath7"><g
     id="g8"
     transform="matrix(18.354181,0,0,-18.354181,-1398.8727,1053.31)"><path
       d="m 43.364656,31.481655 h 54.4835 v 54.4835 h -54.4835 z"
       id="path7"
       inkscape:connector-curvature="0"
       style="stroke-width:0.0544835" /></g></clipPath><clipPath
   clipPathUnits="userSpaceOnUse"
   id="clipPath10"><g
     id="g11"
     transform="matrix(18.354181,0,0,-18.354181,-1387.2727,1146.36)"><path
       d="m 43.364656,31.481655 h 54.4835 v 54.4835 h -54.4835 z"
       id="path10"
       inkscape:connector-curvature="0"
       style="stroke-width:0.0544835" /></g></clipPath><clipPath
   clipPathUnits="userSpaceOnUse"
   id="clipPath11"><g
     id="g12"
     transform="matrix(18.354181,0,0,-18.354181,-1296.4227,1168.63)"><path
       d="m 43.364656,31.481655 h 54.4835 v 54.4835 h -54.4835 z"
       id="path11"
       inkscape:connector-curvature="0"
       style="stroke-width:0.0544835" /></g></clipPath><clipPath
   clipPathUnits="userSpaceOnUse"
   id="clipPath12"><g
     id="g13"
     transform="matrix(18.354181,0,0,-18.354181,-1287.3627,1176.14)"><path
       d="m 43.364656,31.481655 h 54.4835 v 54.4835 h -54.4835 z"
       id="path12"
       inkscape:connector-curvature="0"
       style="stroke-width:0.0544835" /></g></clipPath><clipPath
   clipPathUnits="userSpaceOnUse"
   id="clipPath13"><g
     id="g14"
     transform="matrix(18.354181,0,0,-18.354181,-1249.5927,1162.71)"><path
       d="m 43.364656,31.481655 h 54.4835 v 54.4835 h -54.4835 z"
       id="path13"
       inkscape:connector-curvature="0"
       style="stroke-width:0.0544835" /></g></clipPath><clipPath
   clipPathUnits="userSpaceOnUse"
   id="clipPath14"><g
     id="g15"
     transform="matrix(18.354181,0,0,-18.354181,-1234.6027,1163.57)"><path
       d="m 43.364656,31.481655 h 54.4835 v 54.4835 h -54.4835 z"
       id="path14"
       inkscape:connector-curvature="0"
       style="stroke-width:0.0544835" /></g></clipPath><clipPath
   clipPathUnits="userSpaceOnUse"
   id="clipPath15"><g
     id="g16"
     transform="matrix(18.354181,0,0,-18.354181,-1206.2727,1093.02)"><path
       d="m 43.364656,31.481655 h 54.4835 v 54.4835 h -54.4835 z"
       id="path15"
       inkscape:connector-curvature="0"
       style="stroke-width:0.0544835" /></g></clipPath><clipPath
   clipPathUnits="userSpaceOnUse"
   id="clipPath17"><g
     id="g17"
     transform="matrix(18.354181,0,0,-18.354181,-1206.2727,1061.23)"><path
       d="m 43.364656,31.481655 h 54.4835 v 54.4835 h -54.4835 z"
       id="path17"
       inkscape:connector-curvature="0"
       style="stroke-width:0.0544835" /></g></clipPath><clipPath
   clipPathUnits="userSpaceOnUse"
   id="clipPath18"><g
     id="g19"
     transform="matrix(18.354181,0,0,-18.354181,-1217.1427,1031.35)"><path
       d="m 43.364656,31.481655 h 54.4835 v 54.4835 h -54.4835 z"
       id="path19"
       inkscape:connector-curvature="0"
       style="stroke-width:0.0544835" /></g></clipPath><clipPath
   clipPathUnits="userSpaceOnUse"
   id="clipPath19"><g
     id="g20"
     transform="matrix(18.354181,0,0,-18.354181,-1237.5627,1006.98)"><path
       d="m 43.364656,31.481655 h 54.4835 v 54.4835 h -54.4835 z"
       id="path20"
       inkscape:connector-curvature="0"
       style="stroke-width:0.0544835" /></g></clipPath><clipPath
   clipPathUnits="userSpaceOnUse"
   id="clipPath20"><g
     id="g21"
     transform="matrix(18.354181,0,0,-18.354181,-1208.7927,1006.41)"><path
       d="m 43.364656,31.481655 h 54.4835 v 54.4835 h -54.4835 z"
       id="path21"
       inkscape:connector-curvature="0"
       style="stroke-width:0.0544835" /></g></clipPath><clipPath
   clipPathUnits="userSpaceOnUse"
   id="clipPath21"><g
     id="g23"
     transform="matrix(18.354181,0,0,-18.354181,-1296.3927,985.54997)"><path
       d="m 43.364656,31.481655 h 54.4835 v 54.4835 h -54.4835 z"
       id="path22"
       inkscape:connector-curvature="0"
       style="stroke-width:0.0544835" /></g></clipPath><clipPath
   clipPathUnits="userSpaceOnUse"
   id="clipPath23"><g
     id="g24"
     transform="matrix(18.354181,0,0,-18.354181,-1327.7027,991.05997)"><path
       d="m 43.364656,31.481655 h 54.4835 v 54.4835 h -54.4835 z"
       id="path23"
       inkscape:connector-curvature="0"
       style="stroke-width:0.0544835" /></g></clipPath></defs><g
     inkscape:label="Layer 1"
     inkscape:groupmode="layer"
     id="layer1"><g
       transform="matrix(0.0544835,0,0,-0.0544835,72.337892,53.996416)"
       id="g32"
       style="fill:#dde9af"
       clip-path="url(#clipPath23)" /><g
       transform="matrix(0.0544835,0,0,-0.0544835,70.632013,53.696212)"
       id="g36"
       style="fill:#dde9af"
       clip-path="url(#clipPath21)" /><g
       transform="matrix(0.0544835,0,0,-0.0544835,65.859259,54.832738)"
       id="g40"
       style="fill:#dde9af"
       clip-path="url(#clipPath20)" /><g
       transform="matrix(0.0544835,0,0,-0.0544835,67.426749,54.863794)"
       id="g44"
       style="fill:#dde9af"
       clip-path="url(#clipPath19)" /><g
       transform="matrix(0.0544835,0,0,-0.0544835,66.314196,56.191557)"
       id="g48"
       style="fill:#dde9af"
       clip-path="url(#clipPath18)" /><g
       transform="matrix(0.0544835,0,0,-0.0544835,65.72196,57.819523)"
       id="g52"
       style="fill:#dde9af"
       clip-path="url(#clipPath17)" /><g
       transform="matrix(0.0544835,0,0,-0.0544835,65.72196,59.551554)"
       id="g56"
       style="fill:#dde9af"
       clip-path="url(#clipPath15)" /><g
       transform="matrix(0.0544835,0,0,-0.0544835,67.265478,63.395365)"
       id="g60"
       style="fill:#dde9af"
       clip-path="url(#clipPath14)" /><g
       transform="matrix(0.0544835,0,0,-0.0544835,76.970079,58.147514)"
       id="g84"
       style="fill:#dde9af"
       clip-path="none" /><g
       transform="matrix(0.0544835,0,0,-0.0544835,76.215483,57.388014)"
       id="g88"
       style="fill:#dde9af"
       clip-path="url(#clipPath7)" /><g
       transform="matrix(0.0544835,0,0,-0.0544835,75.545336,57.817344)"
       id="g92"
       style="fill:#dde9af"
       clip-path="url(#clipPath6)" /><g
       transform="matrix(0.0544835,0,0,-0.0544835,74.859933,55.705019)"
       id="g96"
       style="fill:#dde9af"
       clip-path="url(#clipPath5)" /><g
       id="g26"
       style="fill:#dde9af"
       transform="matrix(0.0544835,0,0,-0.0544835,73.18511,54.019844)"><path
         d="m 0,0 c 4.23,3.21 8.36,6.54 12.38,9.99 4.06,3.49 8.01,7.09 11.84,10.81 1.7,1.64 3.37,3.31 5.03,5 2.48,2.54 4.91,5.12 7.29,7.75 2.39,2.64 4.71,5.31 6.99,8.04 0.76,0.9 1.51,1.82 2.26,2.73 1.5,1.84 2.97,3.69 4.41,5.56 1.45,1.88 2.87,3.77 4.27,5.68 10.49,14.32 19.61,29.64 27.2,45.7 l 1.5,3.21 c 0.99,2.16 1.94,4.32 2.87,6.5 2.33,5.44 4.48,10.95 6.45,16.53 0.39,1.12 0.78,2.23 1.16,3.35 1.9,5.61 3.62,11.27 5.15,16.98 3.99,14.85 6.71,30.04 8.06,45.37 2.16,24.49 1.11,49.75 9.46,72.87 14.4,39.88 54.2,65.41 94.69,78.02 40.48,12.61 83.42,15.24 124.47,25.89 32.12148,8.33514 215.67345,97.8832 219.12035,196.55272 l 210.05448,1.95978 C 625.16426,451.67556 353.95182,315.57197 302.71548,300.34718 289.71949,296.48544 292.66656,297.97363 254.36,293.07 212.3,287.67 168.74,269.45 147.62,232.67 135.38,211.36 132.07,186.29 125.69,162.55 113.4,116.82 88.6,74.69 55.27,41.07 54.44,40.22 53.6,39.39 52.76,38.57 51.91,37.74 51.06,36.91 50.21,36.09 47.65,33.64 45.04,31.23 42.38,28.88 39.73,26.52 37.03,24.22 34.28,21.97 32.45,20.47 30.61,18.99 28.74,17.54 25,14.63 21.19,11.83 17.31,9.12 11.96,5.4 6.47,1.86 0.86,-1.46 Z"
         style="fill:#dde9af;fill-opacity:1;fill-rule:nonzero;stroke:none"
         id="path82"
         inkscape:connector-curvature="0"
         sodipodi:nodetypes="cccccccccccccccccccccsccscsccccccc"
         transform="translate(12.019994,-155.71002)" /><path
         d="m 0,0 c -4.89,2.06 -9.84,3.97 -14.85,5.73 -29.09,10.22 -59.95,15.31 -90.8,15.31 -29.7,0 -59.39,-4.72 -87.53,-14.13 -2.35,-0.78 -4.69,-1.59 -7.01,-2.45 h -0.01 c -6.97,-2.55 -13.84,-5.39 -20.57,-8.52 -22.28,-10.37 -43.67,-23.92 -67.86,-28.25 -2.81,-0.51 -5.63,-0.87 -8.44,-1.12 -2.81,-0.25 -5.61,-0.36 -8.41,-0.36 -2.82,0 -5.64,0.12 -8.44,0.35 -0.54,0.05 -1.08,0.1 -1.62,0.15 -32.41,3.22 -63.51,21.43 -87.94,43.97 -28.25,26.06 -50.61,57.97 -76.69,86.21 -2.7,2.92 -5.43,5.81 -8.22,8.64 -0.8,0.81 -1.61,1.62 -2.42,2.43 -12.24,12.1 -25.97,23.31 -40.97,32.19 v 110.64 c 21.88,-6.78 40.94,-20.18 57.23,-36.64 9.79,-9.88 18.57,-20.87 26.36,-32.19 2.26,-3.27 4.45,-6.59 6.6,-9.93 20.76,-32.35 37.14,-67.61 60.43,-98.18 24.07,-31.58 58.62,-58.73 97.73,-61.97 2.66,-0.23 5.34,-0.34 8.04,-0.33 h 0.06 c 3.07,0.01 6.12,0.16 9.16,0.45 21.26,1.97 41.76,10.04 62.54,15.59 2.81,0.75 5.64,1.46 8.47,2.12 0.01,-0.01 0.02,0 0.02,0 2.84,0.65 5.69,1.26 8.54,1.83 17.18,3.37 34.68,5.03 52.19,5.03 31.92,0 63.87,-5.52 93.92,-16.28 0.77,-0.27 1.53,-0.55 2.3,-0.84 h 0.01 c 0.76,-0.28 1.53,-0.56 2.29,-0.85 2.3,-0.87 4.59,-1.77 6.86,-2.7 0.75,-0.31 1.51,-0.62 2.26,-0.94 h 0.01 c 0.75,-0.32 1.5,-0.63 2.25,-0.96 h 0.01 c 0.74,-0.32 1.49,-0.65 2.24,-0.98 C -14.77,9.71 -7.43,6.07 -0.28,2.09 0.09,1.89 0.45,1.68 0.82,1.47 Z"
         style="fill:#dde9af;fill-opacity:1;fill-rule:nonzero;stroke:none"
         id="path34"
         inkscape:connector-curvature="0"
         transform="translate(-15.549975,0.43001322)" /><path
         d="m 0,0 c -4.32,0.22 -8.64,0.32 -12.96,0.32 -0.98,0 -1.96,-0.01 -2.95,-0.02 -12.4,-0.13 -24.79,-1.15 -37.05,-3 -5.51,-0.83 -11,-1.83 -16.46,-3 -3.28,-0.7 -6.54,-1.46 -9.78,-2.28 -7.57,-1.91 -15.07,-4.14 -22.46,-6.67 -2.11,-0.73 -4.21,-1.48 -6.3,-2.25 0,-0.01 -0.01,0 -0.01,0 -5.23,-1.94 -10.41,-4.03 -15.51,-6.28 0,-0.01 0,-0.01 -0.01,0 -3.06,-1.35 -6.1,-2.75 -9.11,-4.21 0,0 0,-0.01 -0.01,0 -27.14,-13.12 -52.13,-30.62 -73.46,-51.92 -17.39,-17.37 -32.85,-37.4 -54.11,-49.75 -14.03,-8.15 -29.58,-12.29 -45.61,-13.39 -2.95,-0.21 -5.92,-0.3 -8.89,-0.3 -2.19,0 -4.38,0.05 -6.57,0.15 -20.96,0.99 -42.21,6.55 -61.56,14.64 -30.56,12.78 -58.51,31.2 -87.53,47.33 h -0.01 c -1.16,0.65 -2.32,1.29 -3.48,1.92 h -0.01 c -6.98,3.83 -14.04,7.51 -21.21,10.92 -1.71,0.82 -3.42,1.61 -5.42,2.39 v 94.2 c 6,-3.47 11.65,-7.17 17.06,-11.02 4.32,-3.07 8.56,-6.25 12.75,-9.51 1.05,-0.81 2.09,-1.63 3.14,-2.45 1.04,-0.82 2.08,-1.64 3.11,-2.48 h 0.01 c 1.03,-0.82 2.07,-1.65 3.09,-2.5 h 0.01 c 25.74,-20.92 49.99,-43.87 77.86,-61.77 23.24,-14.91 50.52,-26.08 77.71,-28.02 2.79,-0.21 5.59,-0.32 8.39,-0.31 2.92,-0.01 5.84,0.11 8.75,0.35 8.78,0.7 17.47,2.5 25.91,5.6 23.07,8.46 41.74,25.51 61.89,39.59 10.71,7.49 21.98,14.16 33.67,19.98 h 0.01 c 1.56,0.78 3.12,1.54 4.69,2.29 0.01,-0.01 0.01,-0.01 0.01,0 3.15,1.49 6.32,2.92 9.52,4.29 0.81,0.34 1.61,0.68 2.42,1.01 1.61,0.67 3.22,1.33 4.83,1.97 11.35,4.47 23,8.19 34.84,11.14 0.84,0.21 1.69,0.41 2.54,0.62 5.94,1.42 11.92,2.64 17.93,3.66 6.87,1.18 13.79,2.1 20.73,2.75 1.74,0.17 3.48,0.32 5.21,0.45 6.95,0.52 13.92,0.79 20.89,0.79 14.66,0 29.31,-1.17 43.77,-3.56 z"
         style="fill:#dde9af;fill-opacity:1;fill-rule:nonzero;stroke:none"
         id="path38"
         inkscape:connector-curvature="0"
         transform="translate(-46.860002,5.9400151)" /><path
         d="m 0,0 c 17.99,7.65 36.77,13.4 55.97,17 l 0.32,-1.67 C 51.22,13.77 46.2,12.05 41.24,10.17 37.34,8.71 33.48,7.15 29.66,5.5 23.15,2.69 16.74,-0.38 10.47,-3.7 9.42,-4.25 8.38,-4.81 7.34,-5.38 c -22.84,-12.46 -43.92,-28.19 -62.43,-46.5 -0.85,-0.82 -1.68,-1.66 -2.51,-2.51 -21.61,-21.91 -39.59,-47.39 -52.62,-75.28 -10.41,-22.27 -18.09,-46.37 -33.84,-65.24 -23.1,-27.67 -59.93,-39.31 -96.47,-40.96 -3.08,-0.14 -6.15,-0.21 -9.22,-0.21 -2.48,0 -4.96,0.05 -7.42,0.13 -0.83,0.04 -1.66,0.07 -2.49,0.11 -27.8,1.31 -55.23,7.02 -82.73,11.93 h -0.03 c -1.3,0.24 -2.6,0.47 -3.9,0.7 h -0.03 c -1.3,0.23 -2.6,0.46 -3.9,0.68 -7.86,1.34 -15.73,2.58 -23.63,3.6 -3.94,0.5 -7.89,0.95 -11.85,1.33 -8.85,0.84 -17.14,1.26 -27.14,1.14 V -131 c 3,-0.7 5.98,-1.43 8.81,-2.21 2.55,-0.71 5.1,-1.44 7.64,-2.21 5.08,-1.52 10.13,-3.16 15.16,-4.86 32.67,-11.08 64.46,-25.17 98.07,-32.74 11.37,-2.56 23.19,-4.25 35.03,-4.79 2.7,-0.12 5.4,-0.19 8.1,-0.19 2.65,0 5.3,0.06 7.95,0.19 25.71,1.22 50.56,8.57 70.06,25.01 18.79,15.85 30.5,38.25 44.61,58.38 12.91,18.41 28.2,35.1 45.28,49.71 h 0.01 c 4.5,3.85 9.11,7.54 13.84,11.1 0.01,-0.01 0.01,0 0.01,0 2.84,2.13 5.72,4.2 8.63,6.23 0.01,-0.01 0.01,-0.01 0.01,0 1.95,1.34 3.91,2.66 5.88,3.96 8.92,5.84 18.17,11.17 27.68,15.96 1.05,0.53 2.12,1.05 3.18,1.57 C -8.66,-3.81 -4.35,-1.85 0,0"
         style="fill:#dde9af;fill-opacity:1;fill-rule:nonzero;stroke:none"
         id="path42"
         inkscape:connector-curvature="0"
         transform="translate(-134.46001,-14.919982)" /><path
         d="m 0,0 c -4.23,-3.2 -8.36,-6.54 -12.38,-10 -11.24,-9.64 -21.66,-20.23 -31.16,-31.59 -1.51,-1.81 -3.01,-3.65 -4.48,-5.5 -1.47,-1.85 -2.92,-3.73 -4.34,-5.62 -2.14,-2.83 -4.22,-5.71 -6.24,-8.63 -8.77,-12.64 -16.5,-26 -23.08,-39.92 -0.51,-1.07 -1.01,-2.14 -1.5,-3.21 -0.99,-2.16 -1.94,-4.32 -2.87,-6.5 -2.33,-5.44 -4.48,-10.95 -6.45,-16.53 -0.4,-1.12 -0.78,-2.23 -1.16,-3.35 -1.9,-5.61 -3.62,-11.27 -5.15,-16.98 -3.99,-14.85 -6.71,-30.04 -8.06,-45.37 -2.16,-24.49 -1.12,-49.75 -9.47,-72.87 -14.41,-39.88 -54.23,-65.41 -94.72,-78.02 -40.49,-12.61 -83.49,-15.24 -124.53,-25.89 -37.2,-9.66 -74.81,-27.83 -96.41,-58.99 -0.37,-0.54 -0.74,-1.08 -1.1,-1.62 -0.73,-1.09 -1.43,-2.2 -2.12,-3.32 -1.03,-1.68 -2.01,-3.4 -2.95,-5.15 -1.16,-2.17 -2.47,-4.36 -3.47,-6.58 v 135.95 c 19,7.23 39.73,11.14 59.84,12.74 13.39,1.06 26.86,1.3 40.35,1.3 10.89,0 21.8,-0.15 32.69,-0.15 10.2,0 20.38,0.13 30.52,0.66 7.95,0.41 15.87,1.06 23.76,2.07 42.07,5.39 85.69,23.62 106.8,60.4 12.24,21.31 15.58,46.38 21.96,70.11 12.29,45.74 37.09,87.87 70.42,121.49 3.34,3.36 6.75,6.63 10.25,9.82 4.37,3.98 8.88,7.83 13.5,11.52 5.55,4.42 11.27,8.64 17.14,12.62 4.43,2.99 8.94,5.86 13.54,8.58 z"
         style="fill:#dde9af;fill-opacity:1;fill-rule:nonzero;stroke:none"
         id="path46"
         inkscape:connector-curvature="0"
         transform="translate(-105.68998,-15.490004)" /><path
         d="m 0,0 c -2.88,-4.46 -5.62,-9.01 -8.22,-13.64 -3.82,-6.79 -7.34,-13.74 -10.55,-20.83 -0.33,-0.75 -0.66,-1.49 -1,-2.24 v -0.01 c -0.33,-0.74 -0.65,-1.49 -0.98,-2.24 v -0.01 c -0.32,-0.74 -0.64,-1.49 -0.96,-2.25 v -0.01 c -0.32,-0.75 -0.63,-1.51 -0.94,-2.26 -0.62,-1.51 -1.23,-3.03 -1.82,-4.56 -0.29,-0.76 -0.58,-1.52 -0.88,-2.29 v -0.01 c -0.28,-0.76 -0.57,-1.52 -0.85,-2.29 -0.01,-0.01 0,-0.01 0,-0.01 -0.29,-0.76 -0.57,-1.53 -0.84,-2.3 -0.83,-2.31 -1.63,-4.63 -2.39,-6.97 -0.25,-0.78 -0.51,-1.55 -0.76,-2.33 v -0.01 c -0.24,-0.78 -0.49,-1.56 -0.73,-2.34 -0.24,-0.78 -0.48,-1.56 -0.71,-2.35 -0.24,-0.78 -0.47,-1.57 -0.69,-2.35 -0.01,-0.01 0,-0.01 0,-0.01 -0.23,-0.78 -0.45,-1.57 -0.68,-2.35 v -0.01 c -0.22,-0.79 -0.43,-1.57 -0.65,-2.36 v -0.01 c -0.21,-0.79 -0.42,-1.58 -0.63,-2.37 -0.2,-0.79 -0.41,-1.58 -0.61,-2.38 -0.19,-0.79 -0.39,-1.59 -0.58,-2.38 v -0.01 c -0.2,-0.79 -0.38,-1.58 -0.57,-2.38 v -0.01 c -0.19,-0.79 -0.37,-1.59 -0.55,-2.38 v -0.01 c -0.17,-0.8 -0.35,-1.6 -0.52,-2.39 v -0.01 c -0.17,-0.8 -0.34,-1.6 -0.51,-2.4 v -0.01 c -0.16,-0.8 -0.32,-1.6 -0.48,-2.4 v -0.01 c -0.16,-0.8 -0.31,-1.6 -0.46,-2.4 v -0.01 c -0.15,-0.8 -0.3,-1.6 -0.44,-2.4 v -0.02 c -0.14,-0.79 -0.28,-1.6 -0.42,-2.4 v -0.02 c -0.14,-0.8 -0.27,-1.6 -0.4,-2.41 v -0.01 c -0.13,-0.81 -0.25,-1.61 -0.38,-2.42 v -0.01 c -0.12,-0.8 -0.23,-1.61 -0.35,-2.42 v -0.01 c -0.12,-0.81 -0.23,-1.61 -0.33,-2.42 -0.01,0 0,-0.01 0,-0.01 -0.11,-0.81 -0.22,-1.62 -0.32,-2.43 v -0.01 c -0.1,-0.81 -0.19,-1.61 -0.29,-2.42 v -0.02 c -0.09,-0.81 -0.18,-1.62 -0.27,-2.43 v -0.01 c -0.09,-0.81 -0.17,-1.62 -0.25,-2.43 v -0.01 c -0.08,-0.81 -0.15,-1.62 -0.23,-2.43 v -0.02 c -0.07,-0.81 -0.13,-1.62 -0.2,-2.43 v -0.02 c -0.07,-0.81 -0.13,-1.62 -0.19,-2.43 v -0.02 c -0.05,-0.81 -0.11,-1.62 -0.16,-2.43 v -0.02 c -0.05,-0.81 -0.09,-1.62 -0.14,-2.43 v -0.02 c -0.04,-0.81 -0.08,-1.63 -0.12,-2.44 v -0.01 c -0.03,-0.82 -0.07,-1.63 -0.1,-2.44 v -0.02 c -0.02,-0.81 -0.05,-1.62 -0.07,-2.43 v -0.02 c -0.02,-0.81 -0.04,-1.63 -0.06,-2.44 v -0.02 c -0.01,-0.81 -0.02,-1.62 -0.03,-2.43 v -0.02 c -0.01,-0.82 -0.01,-1.64 -0.01,-2.46 0,-17.51 1.66,-35 5.03,-52.18 0.56,-2.86 1.17,-5.71 1.83,-8.54 0,0 0.01,-0.01 0,-0.02 0.66,-2.85 1.37,-5.68 2.12,-8.5 5.35,-20.03 13.05,-39.83 15.36,-60.29 0.43,-3.77 0.67,-7.57 0.68,-11.39 v -0.05 -0.17 -0.05 c 0,-0.64 -0.01,-1.29 -0.02,-1.93 v -0.05 c -0.01,-0.64 -0.03,-1.28 -0.06,-1.92 v -0.05 c -0.03,-0.64 -0.06,-1.28 -0.11,-1.92 v -0.05 c -0.04,-0.64 -0.08,-1.27 -0.14,-1.91 v -0.05 c -0.05,-0.63 -0.11,-1.27 -0.18,-1.9 -3.99,-38.27 -30.75,-71.99 -61.79,-95.64 -29.51,-22.49 -63.41,-38.63 -94.82,-58.43 -4.48,-2.82 -8.92,-5.73 -13.29,-8.73 -30.26,-20.83 -58.11,-48.82 -68.91,-83.82 h -93.3 c -0.35,4.7 -0.55,9.28 -0.55,13.79 0,12.73 1.57,24.82 5.58,37.08 1.03,3.15 2.21,6.22 3.52,9.22 0.26,0.6 0.53,1.2 0.8,1.79 v 0.01 c 0.55,1.19 1.12,2.36 1.7,3.52 v 0.01 c 0.59,1.16 1.2,2.31 1.83,3.45 v 0.01 c 0.32,0.57 0.64,1.13 0.96,1.69 v 0.01 c 0.33,0.56 0.65,1.12 0.99,1.68 0,0 -0.01,0 0,0.01 1,1.67 2.05,3.32 3.13,4.94 v 0.01 c 17.76,26.52 46.44,46.11 75.97,59.59 38.58,17.62 80.41,27.73 118.09,47.18 37.1,19.15 71.37,50.55 79.34,91.39 0.13,0.64 0.25,1.28 0.36,1.92 v 0.03 c 0.14,0.79 0.27,1.59 0.39,2.39 v 0.03 c 0.12,0.79 0.23,1.59 0.33,2.39 -0.01,0.01 0,0.02 0,0.03 0.1,0.79 0.19,1.59 0.27,2.39 -0.01,0.01 -0.01,0.02 0,0.03 0.08,0.8 0.15,1.59 0.21,2.39 v 0.03 c 0.06,0.8 0.12,1.6 0.16,2.4 v 0.03 c 0.05,0.8 0.08,1.6 0.11,2.4 v 0.03 c 0.03,0.8 0.05,1.6 0.07,2.4 v 0.03 c 0.01,0.81 0.02,1.61 0.02,2.41 0,17.94 -3.34,36.03 -4.9,54.02 -0.65,7.53 -0.98,15.08 -0.98,22.63 0,1.06 0.01,2.13 0.02,3.19 v 0.01 c 0.01,1.07 0.03,2.13 0.06,3.19 v 0.01 c 0.02,1.06 0.05,2.12 0.09,3.18 v 0.01 c 0.04,1.06 0.09,2.12 0.14,3.18 v 0.01 c 0.05,1.06 0.1,2.12 0.17,3.18 v 0.01 c 0.06,1.06 0.13,2.12 0.21,3.18 v 0.01 c 0.07,1.06 0.16,2.12 0.24,3.17 v 0.01 c 0.09,1.06 0.19,2.12 0.29,3.18 v 0.01 c 0.1,1.05 0.21,2.11 0.32,3.16 v 0.01 c 0.12,1.06 0.24,2.11 0.36,3.17 v 0.01 c 0.13,1.05 0.26,2.11 0.4,3.16 v 0.01 c 0.14,1.05 0.28,2.1 0.43,3.15 v 0.01 c 0.15,1.05 0.31,2.1 0.47,3.15 v 0.01 c 0.16,1.05 0.33,2.1 0.51,3.15 v 0.01 c 0.17,1.05 0.35,2.09 0.54,3.14 v 0.01 c 0.19,1.04 0.38,2.09 0.58,3.13 v 0.01 c 0.4,2.09 0.82,4.17 1.27,6.25 v 0.01 c 0.45,2.08 0.92,4.16 1.41,6.23 v 0.01 c 0.25,1.03 0.5,2.06 0.76,3.09 v 0.01 c 0.26,1.03 0.52,2.06 0.79,3.09 v 0.01 c 0.55,2.06 1.11,4.11 1.7,6.15 v 0.01 c 0.3,1.02 0.59,2.04 0.9,3.06 v 0.01 c 0.61,2.04 1.25,4.07 1.91,6.09 0,0 -0.01,0.01 0,0.01 0.66,2.03 1.34,4.04 2.04,6.05 v 0.01 c 0.35,1 0.71,2 1.07,3 v 0.01 c 0.37,1 0.74,2 1.11,2.99 v 0.01 c 0.38,1 0.76,1.99 1.15,2.98 0.77,1.99 1.56,3.97 2.38,5.93 0.41,0.98 0.83,1.96 1.25,2.94 0,0 -0.01,0 0,0.01 0.42,0.98 0.84,1.95 1.27,2.92 v 0.01 c 0.44,0.97 0.87,1.94 1.31,2.91 0.45,0.97 0.89,1.94 1.35,2.9 0.45,0.96 0.91,1.92 1.38,2.88 0,0 -0.01,0 0,0.01 0.46,0.96 0.93,1.91 1.41,2.86 0.95,1.91 1.92,3.81 2.92,5.69 0.49,0.94 1,1.88 1.5,2.81 v 0.01 c 1.02,1.87 2.06,3.73 3.12,5.57 v 0.01 c 0.53,0.92 1.07,1.84 1.6,2.76 2.17,3.67 4.41,7.29 6.74,10.85 0.59,0.89 1.17,1.78 1.77,2.66 v 0.01 c 0.6,0.89 1.19,1.76 1.79,2.64 4.23,6.14 8.71,12.1 13.44,17.87 z"
         style="fill:#dde9af;fill-opacity:1;fill-rule:nonzero;stroke:none"
         id="path50"
         inkscape:connector-curvature="0"
         transform="translate(-126.11,-39.860021)" /><path
         d="m 0,0 c -1.18,-5.18 -2.2,-10.38 -3.06,-15.62 -2.39,-14.46 -3.56,-29.11 -3.56,-43.77 0,-6.97 0.27,-13.94 0.79,-20.89 0.13,-1.73 0.28,-3.47 0.45,-5.21 0.65,-6.94 1.57,-13.86 2.75,-20.73 1.02,-6.01 2.24,-11.99 3.66,-17.93 0.21,-0.85 0.41,-1.7 0.62,-2.54 2.95,-11.84 6.67,-23.49 11.14,-34.84 0.64,-1.62 1.29,-3.23 1.97,-4.83 0.33,-0.81 0.67,-1.61 1.01,-2.42 1.37,-3.2 2.8,-6.38 4.29,-9.52 0.01,0 0.01,0 0,-0.01 0.75,-1.57 1.51,-3.14 2.29,-4.69 v -0.01 c 5.82,-11.7 12.49,-22.97 19.98,-33.69 14.08,-20.15 31.13,-38.85 39.59,-61.93 3.09,-8.42 4.89,-17.09 5.6,-25.85 0.24,-2.92 0.36,-5.85 0.35,-8.79 0,-0.91 -0.01,-1.82 -0.03,-2.73 -0.01,-0.03 -0.01,-0.06 0,-0.08 -0.03,-0.91 -0.06,-1.82 -0.11,-2.73 v -0.07 c -0.04,-0.92 -0.1,-1.83 -0.17,-2.74 -1.96,-27.15 -13.12,-54.36 -28.02,-77.58 -18.61,-29 -42.7,-54.15 -64.27,-81.09 -0.01,-0.01 0,-0.01 0,-0.01 -0.83,-1.04 -1.65,-2.07 -2.48,-3.11 v -0.01 c -0.82,-1.04 -1.64,-2.08 -2.45,-3.12 -0.01,-0.01 0,-0.01 0,-0.01 -0.82,-1.05 -1.63,-2.1 -2.43,-3.15 -2.41,-3.16 -4.77,-6.36 -7.08,-9.6 -3.91,-5.48 -7.65,-11.29 -11.15,-17.29 h -105.85 c 9.49,16 21.66,30.73 34.76,43.62 2.83,2.79 5.72,5.53 8.64,8.22 28.24,26.06 60.15,48.32 86.21,76.56 22.56,24.45 40.77,55.62 43.97,88.07 0.05,0.54 0.1,1.08 0.15,1.62 -0.01,0.02 0,0.04 0,0.06 0.05,0.54 0.09,1.08 0.12,1.62 v 0.06 c 0.04,0.54 0.08,1.08 0.1,1.62 v 0.06 c 0.03,0.54 0.05,1.09 0.07,1.63 v 0.06 c 0.02,0.54 0.04,1.08 0.05,1.62 v 0.06 c 0.01,0.54 0.01,1.09 0.01,1.63 0,2.8 -0.11,5.61 -0.36,8.43 -0.24,2.83 -0.61,5.66 -1.12,8.5 -4.33,24.19 -17.88,45.54 -28.25,67.82 -3.13,6.73 -5.97,13.59 -8.52,20.55 v 0.01 c -0.85,2.33 -1.67,4.66 -2.45,7.01 -9.41,28.14 -14.13,57.83 -14.13,87.53 0,1.13 0.01,2.26 0.02,3.39 v 0.01 c 0.01,1.13 0.03,2.25 0.06,3.38 v 0.01 c 0.03,1.13 0.06,2.25 0.1,3.38 v 0.01 c 0.05,1.12 0.09,2.25 0.15,3.37 v 0.01 c 0.05,1.13 0.11,2.25 0.18,3.38 v 0.01 c 0.07,1.12 0.15,2.25 0.23,3.37 v 0.01 c 0.08,1.12 0.17,2.25 0.27,3.37 v 0.01 c 0.09,1.12 0.19,2.24 0.3,3.37 0.11,1.12 0.23,2.25 0.35,3.37 0.13,1.12 0.26,2.24 0.39,3.36 v 0.01 c 0.14,1.12 0.28,2.24 0.43,3.36 2.46,18.25 6.73,36.25 12.83,53.62 z"
         style="fill:#dde9af;fill-opacity:1;fill-rule:nonzero;stroke:none"
         id="path54"
         inkscape:connector-curvature="0"
         transform="translate(-136.98,-69.739992)" /><path
         d="m 0,0 c 0.66,-5.27 1.48,-10.52 2.47,-15.73 3.6,-19.2 9.35,-37.98 17,-55.97 1.85,-4.35 3.81,-8.66 5.89,-12.92 0.52,-1.06 1.04,-2.13 1.57,-3.18 7.98,-15.86 17.47,-30.97 28.29,-45.04 1.45,-1.87 2.91,-3.72 4.41,-5.56 2.24,-2.75 4.53,-5.47 6.87,-8.14 3.89,-4.45 7.94,-8.76 12.12,-12.94 10.87,-10.89 22.66,-20.84 35.27,-29.68 20.13,-14.11 42.53,-25.86 58.38,-44.65 16.42,-19.48 23.78,-44.31 25.01,-70 0.13,-2.66 0.19,-5.33 0.19,-8 0,-0.87 -0.01,-1.74 -0.02,-2.61 v -0.11 c -0.02,-0.87 -0.04,-1.74 -0.07,-2.61 v -0.11 c -0.02,-0.87 -0.06,-1.74 -0.1,-2.61 -0.55,-11.8 -2.24,-23.58 -4.79,-34.91 -7.28,-32.31 -20.59,-63.03 -31.45,-94.42 v -0.01 c -0.43,-1.25 -0.86,-2.51 -1.29,-3.76 v -0.01 c -0.42,-1.25 -0.84,-2.51 -1.26,-3.76 v -0.01 c -0.42,-1.26 -0.83,-2.52 -1.24,-3.78 v -0.01 c -0.4,-1.25 -0.8,-2.52 -1.2,-3.78 v -0.01 c -0.39,-1.26 -0.78,-2.53 -1.16,-3.8 -0.77,-2.54 -1.5,-5.08 -2.21,-7.64 -0.8,-2.9 -1.55,-6.04 -2.26,-9.04 H 63.91 c 0.81,2 1.64,3.87 2.49,5.65 1.14,2.39 2.31,4.77 3.5,7.14 0.59,1.18 1.2,2.36 1.8,3.54 v 0.01 c 1.22,2.35 2.46,4.7 3.72,7.03 0,0 -0.01,0 0,0.01 16.98,31.52 37.35,61.39 51.15,94.39 8.1,19.37 13.67,40.66 14.64,61.68 v 0.09 c 0.03,0.69 0.06,1.39 0.08,2.08 v 0.1 c 0.03,0.69 0.04,1.38 0.05,2.07 v 0.09 c 0.01,0.7 0.02,1.39 0.02,2.08 0.01,2.99 -0.09,5.98 -0.3,8.95 -1.08,16.05 -5.23,31.61 -13.39,45.67 -12.35,21.26 -32.38,36.68 -49.75,54.08 -21.3,21.33 -38.8,46.31 -51.92,73.43 0.01,0.01 0,0.01 0,0.01 -1.45,3.02 -2.85,6.05 -4.21,9.11 0.01,0.01 0.01,0.01 0,0.01 -0.89,2.04 -1.77,4.09 -2.62,6.15 v 0.01 c -1.27,3.1 -2.49,6.21 -3.66,9.35 0,0 0.01,0.01 0,0.01 -0.77,2.09 -1.52,4.19 -2.25,6.3 -2.53,7.39 -4.76,14.89 -6.67,22.46 -0.82,3.24 -1.58,6.5 -2.28,9.78 -1.17,5.46 -2.17,10.95 -3,16.46 -1.85,12.26 -2.87,24.65 -3,37.05 z"
         style="fill:#dde9af;fill-opacity:1;fill-rule:nonzero;stroke:none"
         id="path58"
         inkscape:connector-curvature="0"
         transform="translate(-136.98,-101.53001)" /><path
         d="m 0,0 c -7.43,12.82 -13.82,26.23 -19.03,40.09 l 1.58,0.59 c 2.42,-4.72 4.99,-9.37 7.69,-13.93 1.52,-2.57 3.08,-5.1 4.69,-7.61 1.91,-2.99 3.88,-5.94 5.91,-8.85 1.35,-1.94 2.73,-3.87 4.13,-5.77 8.41,-11.43 17.73,-22.2 27.81,-32.19 3.36,-3.34 6.81,-6.59 10.34,-9.75 31.74,-28.44 69.98,-49.64 111.14,-60.7 23.74,-6.38 48.81,-9.76 70.12,-22 36.78,-21.11 55,-64.8 60.4,-106.86 1.01,-7.85 1.65,-15.73 2.07,-23.64 0.53,-10.15 0.66,-20.34 0.66,-30.55 0,-2.7 -0.01,-5.41 -0.02,-8.11 v -0.05 c -0.02,-2.71 -0.04,-5.41 -0.05,-8.12 -0.01,-0.02 -0.01,-0.04 0,-0.05 -0.02,-2.71 -0.04,-5.42 -0.06,-8.13 v -0.04 c -0.01,-2.73 -0.02,-5.45 -0.02,-8.17 0,-10.11 0.13,-20.21 0.65,-30.28 0.17,-3.36 0.38,-6.71 0.65,-10.06 1.61,-20.19 5.54,-41.07 12.83,-60.07 h -93.88 c -0.01,0.64 -0.02,1.26 -0.02,1.88 -0.01,0.62 -0.01,1.24 -0.01,1.85 0,0.53 0.01,1.05 0.01,1.57 0,0 -0.01,0 0,0.01 0,0.51 0,1.02 0.01,1.53 v 0.01 c 0.01,0.51 0.01,1.02 0.02,1.52 v 0.01 c 0.02,1.01 0.05,2 0.08,2.99 v 0.01 c 0.02,0.5 0.03,0.99 0.05,1.47 v 0.01 c 0.02,0.49 0.04,0.98 0.06,1.46 v 0.01 c 0.02,0.49 0.05,0.97 0.07,1.45 v 0.01 c 0.05,0.97 0.11,1.93 0.17,2.89 v 0.01 c 0.03,0.48 0.06,0.96 0.09,1.44 0.04,0.48 0.07,0.96 0.11,1.44 0.03,0.48 0.07,0.96 0.11,1.44 v 0.01 c 0.04,0.48 0.08,0.96 0.12,1.44 0.08,0.97 0.17,1.94 0.26,2.91 0.25,2.64 0.54,5.27 0.85,7.91 0.15,1.31 0.32,2.63 0.49,3.94 v 0.01 c 0.34,2.63 0.7,5.25 1.08,7.87 v 0.01 c 0.19,1.31 0.39,2.62 0.59,3.93 v 0.01 c 0.2,1.31 0.41,2.61 0.62,3.92 v 0.02 c 0.21,1.31 0.43,2.61 0.64,3.91 v 0.02 c 0.22,1.3 0.44,2.61 0.67,3.91 -0.01,0.01 -0.01,0.02 0,0.02 0.22,1.3 0.45,2.6 0.68,3.9 -0.01,0.01 -0.01,0.02 0,0.03 0.23,1.3 0.46,2.6 0.69,3.9 v 0.03 c 4.91,27.45 10.62,54.82 11.93,82.6 0.04,0.87 0.08,1.74 0.1,2.62 0.04,0.78 0.06,1.57 0.08,2.36 v 0.13 c 0.02,0.79 0.04,1.58 0.04,2.37 v 0.13 c 0.02,0.79 0.02,1.58 0.02,2.37 0,2.47 -0.05,4.94 -0.13,7.42 -0.02,0.62 -0.04,1.24 -0.08,1.86 -1.63,36.57 -13.27,73.4 -40.96,96.53 -18.87,15.75 -42.97,23.4 -65.24,33.8 -28.97,13.53 -55.32,32.39 -77.79,55.1 -5.83,5.9 -11.39,12.05 -16.67,18.43 -0.76,0.91 -1.51,1.82 -2.25,2.75 -2.23,2.77 -4.4,5.58 -6.53,8.42 -0.7,0.94 -1.4,1.9 -2.1,2.86 -2.78,3.83 -5.46,7.74 -8.04,11.7 -1.29,1.98 -2.56,3.98 -3.8,6 C 2.4,-4.07 1.18,-2.04 0,0"
         style="fill:#dde9af;fill-opacity:1;fill-rule:nonzero;stroke:none"
         id="path62"
         inkscape:connector-curvature="0"
         transform="translate(-108.64998,-172.08001)" /><path
         d="m 0,0 c -4.6,4.63 -9.04,9.43 -13.29,14.38 l 1.28,1.1 c 3.89,-3.61 7.89,-7.09 11.98,-10.45 17.32,-14.2 36.42,-26.17 56.69,-35.71 0.01,-0.01 0.01,0 0.01,0 0.96,-0.46 1.92,-0.9 2.89,-1.35 1.94,-0.88 3.89,-1.74 5.85,-2.59 0.98,-0.41 1.95,-0.83 2.94,-1.24 0.99,-0.41 1.97,-0.81 2.96,-1.21 0.99,-0.4 1.98,-0.79 2.97,-1.18 1,-0.38 1.99,-0.76 2.99,-1.14 1,-0.37 1.99,-0.74 2.99,-1.11 30.05,-10.9 61.97,-16.68 93.91,-16.68 7.56,0 15.12,0.33 22.65,0.98 17.98,1.56 36.07,4.9 54,4.9 5.68,0 11.35,-0.34 16.99,-1.17 0.8,-0.12 1.6,-0.25 2.39,-0.39 h 0.03 c 0.64,-0.11 1.28,-0.23 1.92,-0.36 3.89,-0.76 7.69,-1.76 11.41,-2.98 35.27,-11.56 62.56,-42.8 79.88,-76.36 19.46,-37.68 29.44,-79.51 47.06,-118.09 26.00165,-56.94382 87.99145,-59.46895 138.81394,-67.35036 36.64309,-5.68251 516.21536,-97.83601 520.50206,-97.50316 -136.89764,0.24708 -222.38563,0.39352 -222.38563,0.39352 0,0 -62.99455,-1.04246 -69.74793,2.09709 -20.9812,9.75385 -376.77775,48.91006 -412.46221,107.62496 C 342.88222,-268.63319 333.42,-224.73 320.81,-184.24 c -12.61,40.49 -38.14,80.28 -78.02,94.69 -23.12,8.35 -48.38,7.29 -72.87,9.45 -18.87,1.67 -37.52,5.4 -55.6,11.01 -27.11,8.42 -52.93,21.06 -76.27,37.25 -2.91,2.03 -5.79,4.11 -8.63,6.24 -1.89,1.42 -3.76,2.87 -5.61,4.34 -1.86,1.47 -3.69,2.97 -5.51,4.48 C 11.95,-11.46 5.84,-5.86 0,0"
         style="fill:#dde9af;fill-opacity:1;fill-rule:nonzero;stroke:none"
         id="path66"
         inkscape:connector-curvature="0"
         transform="translate(-93.65998,-171.22002)"
         sodipodi:nodetypes="ccccccccsscccscscccccccsccssscccccccc" /><path
         d="m 0,0 c -7.88,3.47 -15.58,7.32 -23.08,11.54 l 0.83,1.48 c 0.33,-0.14 0.65,-0.27 0.98,-0.41 4.57,-1.9 9.19,-3.67 13.86,-5.31 C 5.7,2.69 19.17,-0.88 32.84,-3.4 49.5,-6.48 66.45,-8.02 83.4,-8.02 c 29.69,0 59.39,4.72 87.52,14.13 9.39,3.13 18.61,6.79 27.59,10.97 22.28,10.37 43.64,23.92 67.83,28.25 2.11,0.38 4.22,0.68 6.33,0.91 3.51,0.38 7.02,0.57 10.52,0.57 2.26,0 4.51,-0.08 6.76,-0.23 0.54,-0.03 1.07,-0.07 1.61,-0.12 33,-2.74 362.20238,-168.75201 552.37972,-228.01255 176.07998,-54.86771 391.43958,-22.46752 540.82708,-116.78082 v -64.33528 c -31.8981,28.88125 -77.9821,35.35344 -116.4397,55.86391 -41.7219,22.25141 -460.09897,72.14745 -627.12584,131.81989 -91.3009,32.61839 -186.64618,73.35044 -276.47275,117.645251 C 329.16539,-39.802897 300.24,-2.1 261.14,1.14 c -0.63,0.06 -1.26,0.1 -1.89,0.14 -2.04,0.13 -4.08,0.19 -6.14,0.19 -3.07,-0.01 -6.13,-0.16 -9.16,-0.45 -21.29,-1.95 -41.78,-10.04 -62.58,-15.59 -2.81,-0.75 -5.64,-1.46 -8.47,-2.12 h -0.02 c -2.84,-0.65 -5.69,-1.26 -8.54,-1.83 -17.18,-3.37 -34.68,-5.04 -52.19,-5.03 -31.1,-0.01 -62.22,5.24 -91.6,15.46 -0.77,0.27 -1.54,0.54 -2.31,0.82 -0.77,0.27 -1.54,0.55 -2.31,0.83 -0.77,0.29 -1.53,0.57 -2.29,0.86 H 13.63 C 12.86,-5.29 12.1,-5 11.34,-4.7 8.29,-3.52 5.26,-2.28 2.25,-0.98 1.5,-0.66 0.75,-0.33 0.01,0 Z"
         style="fill:#dde9af;fill-opacity:1;fill-rule:nonzero;stroke:none"
         id="path70"
         inkscape:connector-curvature="0"
         mask="none"
         sodipodi:nodetypes="ccccccsccccsccaccssaccccsccccccccccccc"
         transform="translate(-55.889979,-184.65002)" /><path
         d="m 0,0 c 5.3,-0.26 10.6,-0.36 15.91,-0.3 16.86,0.18 33.7,1.99 50.23,5.32 1.09,0.22 2.19,0.45 3.28,0.68 4.37,0.93 8.71,1.97 13.02,3.12 2.15,0.57 4.3,1.17 6.45,1.79 10.72,3.11 21.25,6.87 31.52,11.24 2.05,0.88 4.09,1.77 6.12,2.7 1.02,0.46 2.04,0.93 3.05,1.4 2.02,0.95 4.03,1.92 6.02,2.92 h 0.01 c 25.97,12.94 49.91,29.93 70.45,50.44 17.39,17.37 32.83,37.4 54.08,49.75 14.03,8.15 29.57,12.29 45.59,13.39 2.95,0.2 5.92,0.3 8.9,0.3 2.18,0 4.37,-0.05 6.56,-0.15 0.69,-0.03 1.38,-0.07 2.08,-0.12 C 343.54,141.24 691.49419,66.218863 878.10906,45.713904 1043.1589,27.57848 1332.0125,23.957313 1375.7068,22.702681 V -71.49732 c 0,0 -355.584,42.274253 -532.62536,68.7936162 C 663.36606,24.216204 332.86,87.01 305.68,88.95 c -2.8,0.21 -5.59,0.31 -8.38,0.31 -2.92,0 -5.84,-0.11 -8.75,-0.35 -8.78,-0.7 -17.46,-2.5 -25.9,-5.6 C 239.57,74.85 220.93,57.8 200.78,43.72 179.34,28.73 155.69,17.04 130.87,8.85 102.74,-0.44 73.11,-5.23 43.5,-5.23 c -8.73,0 -17.47,0.41 -26.16,1.26 -5.89,0.57 -11.77,1.33 -17.61,2.3 z"
         style="fill:#dde9af;fill-opacity:1;fill-rule:nonzero;stroke:none"
         id="path74"
         inkscape:connector-curvature="0"
         mask="none"
         sodipodi:nodetypes="ccccccccccccccsccaccacsccccsccc"
         transform="translate(-46.829991,-177.13999)" /><path
         d="m 0,0 c -18.97,-8.36 -38.86,-14.59 -59.23,-18.41 l -0.31,1.66 c 5.07,1.57 10.1,3.29 15.06,5.16 v 0.01 c 5,1.87 9.94,3.91 14.81,6.09 5.4,2.41 10.72,5.01 15.95,7.77 2.09,1.11 4.17,2.24 6.23,3.4 2.06,1.16 4.1,2.35 6.14,3.56 19.3,11.52 37.21,25.42 53.19,41.23 22.73,22.47 41.59,48.83 55.12,77.79 10.41,22.27 18.06,46.37 33.81,65.24 23.47,28.1 61.06,39.68 98.15,41.04 2.5,0.08 4.99,0.12 7.48,0.13 2.49,-0.01 4.96,-0.05 7.42,-0.13 0.83,-0.04 1.66,-0.07 2.49,-0.11 42.61231,-2.00799 83.47242,-13.32098 125.7,-18.24 466.67311,-54.36197 893.7831,147.35269 902.7831,147.47269 v -85.46 C 1266.0208,284.77299 987.29998,180.18379 832.80363,162.00415 649.71778,140.46037 322.14098,160.68578 279.84,171.61 c -11.38,2.56 -23.19,4.25 -35.02,4.79 -2.69,0.12 -5.39,0.19 -8.09,0.19 -2.66,0 -5.31,-0.07 -7.94,-0.19 -25.69,-1.22 -50.53,-8.57 -70.02,-25.01 C 139.98,135.54 128.29,113.14 114.18,93.01 104.67,79.44 93.86,66.81 82.01,55.25 79.46,52.77 76.87,50.34 74.23,47.98 72.47,46.4 70.7,44.84 68.9,43.3 50.02,27.15 28.95,13.54 6.46,2.94 4.32,1.94 2.17,0.95 0,0"
         style="fill:#dde9af;fill-opacity:1;fill-rule:nonzero;stroke:none"
         id="path78"
         inkscape:connector-curvature="0"
         mask="none"
         transform="translate(44.019992,-154.86999)"
         sodipodi:nodetypes="cccccccsccccccccsccaccscscccccc" /><path
         d="m 0,0 c -9.54,-20.27 -21.51,-39.38 -35.72,-56.7 l -1.3,1.09 c 2.88,4.46 5.62,9.01 8.22,13.64 3.82,6.79 7.34,13.74 10.55,20.83 0.33,0.75 0.67,1.5 1,2.24 v 0.01 c 0.33,0.75 0.66,1.5 0.98,2.24 v 0.01 c 0.33,0.75 0.64,1.5 0.96,2.25 0.95,2.27 1.87,4.54 2.76,6.83 0.29,0.76 0.59,1.53 0.88,2.29 v 0.01 c 0.29,0.76 0.57,1.53 0.85,2.29 v 0.01 c 0.57,1.53 1.12,3.07 1.66,4.61 v 0.01 c 0.27,0.77 0.53,1.55 0.8,2.32 0.26,0.78 0.52,1.55 0.77,2.33 0.26,0.77 0.51,1.55 0.76,2.33 0,0 -0.01,0 0,0.01 0.25,0.78 0.49,1.56 0.73,2.34 0.24,0.78 0.48,1.57 0.71,2.35 0.24,0.78 0.47,1.56 0.69,2.35 v 0.01 c 0.23,0.78 0.46,1.57 0.68,2.35 v 0.01 c 0.22,0.79 0.43,1.57 0.65,2.36 v 0.01 c 0.21,0.79 0.42,1.58 0.63,2.36 v 0.01 c 0.21,0.79 0.41,1.58 0.61,2.37 v 0.01 c 0.2,0.79 0.39,1.59 0.58,2.38 v 0.01 c 0.2,0.79 0.39,1.58 0.57,2.38 v 0.01 c 0.19,0.79 0.37,1.59 0.55,2.38 v 0.01 c 0.18,0.8 0.35,1.59 0.52,2.39 v 0.01 c 0.17,0.8 0.34,1.6 0.51,2.39 -0.01,0.01 0,0.01 0,0.01 l 0.48,2.4 v 0.01 c 0.16,0.8 0.31,1.6 0.46,2.4 v 0.02 c 0.15,0.8 0.3,1.6 0.44,2.4 v 0.01 C 2.13,45.19 2.26,46 2.4,46.8 v 0.01 c 0.14,0.81 0.27,1.61 0.4,2.41 v 0.02 c 0.13,0.81 0.25,1.61 0.38,2.41 -0.01,0.01 -0.01,0.01 0,0.01 0.12,0.81 0.24,1.61 0.35,2.42 v 0.01 c 0.12,0.81 0.23,1.62 0.33,2.42 v 0.02 c 0.11,0.81 0.22,1.62 0.32,2.42 v 0.01 c 0.1,0.81 0.2,1.62 0.29,2.43 v 0.01 l 0.27,2.43 v 0.01 c 0.09,0.81 0.17,1.62 0.25,2.43 v 0.02 c 0.08,0.81 0.15,1.62 0.23,2.43 -0.01,0.01 -0.01,0.01 0,0.01 0.07,0.81 0.14,1.62 0.2,2.44 v 0.01 c 0.07,0.81 0.13,1.62 0.19,2.43 -0.01,0.01 -0.01,0.01 0,0.02 0.05,0.81 0.11,1.62 0.16,2.43 v 0.02 c 0.05,0.81 0.1,1.63 0.14,2.44 v 0.01 c 0.04,0.81 0.08,1.62 0.12,2.44 v 0.02 c 0.03,0.81 0.07,1.62 0.1,2.43 v 0.02 c 0.03,0.81 0.05,1.62 0.07,2.44 v 0.01 c 0.02,0.81 0.04,1.63 0.06,2.44 v 0.02 c 0.01,0.81 0.02,1.62 0.03,2.44 v 0.01 c 0.01,0.81 0.01,1.63 0.01,2.44 0.01,17.52 -1.66,35.02 -5.03,52.2 -0.56,2.86 -1.17,5.71 -1.83,8.54 V 154 c -0.66,2.85 -1.37,5.68 -2.12,8.5 -5.55,20.77 -13.62,41.28 -15.59,62.55 -0.29,3.03 -0.44,6.09 -0.45,9.16 0,0.72 0.01,1.43 0.02,2.14 v 0.06 c 0.02,0.64 0.04,1.28 0.06,1.91 v 0.06 c 0.03,0.64 0.07,1.27 0.11,1.91 -0.01,0.02 0,0.04 0,0.06 0.04,0.63 0.09,1.26 0.14,1.89 3.27,39.08 30.4,73.49 61.97,97.55 30.57,23.29 65.83,39.46 98.17,60.19 3.35,2.15 6.66,4.34 9.94,6.59 30.12,20.74 57.85,48.86 68.76,82.86 l 107.67988,0.062 C 319.18607,470.28852 313.44674,449.80878 305.35,430.3 c -0.26,-0.59 -0.52,-1.19 -0.8,-1.78 v -0.01 c -0.27,-0.59 -0.55,-1.17 -0.84,-1.76 v -0.01 c -0.56,-1.17 -1.15,-2.33 -1.76,-3.48 v -0.01 c -0.3,-0.57 -0.61,-1.14 -0.93,-1.7 v -0.01 c -0.31,-0.57 -0.63,-1.13 -0.96,-1.69 v -0.01 c -0.32,-0.56 -0.65,-1.12 -0.99,-1.67 v -0.01 c -0.67,-1.11 -1.35,-2.21 -2.06,-3.3 v -0.01 c -0.35,-0.55 -0.7,-1.09 -1.07,-1.62 v -0.01 C 278.18,386.81 249.5,367.44 219.97,353.95 181.39,336.33 139.56,326.29 101.88,306.84 64.78,287.68 30.51,256.31 22.54,215.48 l -0.36,-1.92 v -0.03 c -0.14,-0.8 -0.27,-1.59 -0.39,-2.39 v -0.03 c -0.12,-0.79 -0.22,-1.59 -0.33,-2.39 v -0.03 c -0.09,-0.79 -0.18,-1.59 -0.27,-2.39 v -0.03 c -0.08,-0.79 -0.15,-1.59 -0.21,-2.39 v -0.03 c -0.06,-0.8 -0.11,-1.6 -0.16,-2.4 v -0.03 c -0.05,-0.8 -0.08,-1.6 -0.11,-2.4 v -0.03 c -0.03,-0.8 -0.05,-1.6 -0.07,-2.4 v -0.03 c -0.01,-0.81 -0.02,-1.62 -0.02,-2.43 0.01,-17.93 3.34,-36.01 4.9,-53.98 0.65,-7.53 0.98,-15.09 0.98,-22.65 0,-1.06 -0.01,-2.12 -0.02,-3.18 v -0.01 c -0.01,-1.07 -0.03,-2.13 -0.06,-3.19 v -0.01 c -0.02,-1.06 -0.05,-2.12 -0.09,-3.18 v -0.01 c -0.04,-1.06 -0.09,-2.12 -0.14,-3.18 v -0.01 c -0.05,-1.06 -0.1,-2.12 -0.17,-3.18 v -0.01 c -0.06,-1.06 -0.13,-2.12 -0.21,-3.18 v -0.01 c -0.07,-1.06 -0.16,-2.11 -0.24,-3.17 -0.01,-0.01 0,-0.01 0,-0.01 -0.18,-2.12 -0.38,-4.24 -0.61,-6.35 V 88.81 C 24.85,87.75 24.73,86.69 24.6,85.64 24.47,84.58 24.34,83.53 24.2,82.47 24.07,81.41 23.92,80.36 23.77,79.31 V 79.3 C 23.62,78.25 23.46,77.2 23.3,76.15 v -0.01 c -0.16,-1.05 -0.33,-2.1 -0.51,-3.15 -0.35,-2.1 -0.72,-4.2 -1.12,-6.29 -0.2,-1.05 -0.4,-2.09 -0.62,-3.13 V 63.56 C 20.84,62.52 20.63,61.48 20.4,60.44 V 60.43 C 20.18,59.39 19.95,58.36 19.71,57.32 V 57.31 C 19.48,56.27 19.24,55.24 18.99,54.2 18.5,52.13 17.98,50.06 17.44,48 17.17,46.97 16.89,45.95 16.61,44.92 V 44.91 C 16.32,43.89 16.04,42.86 15.74,41.84 13.68,34.67 11.33,27.58 8.71,20.6 8.33,19.61 7.95,18.61 7.56,17.62 V 17.61 C 6.79,15.63 6,13.66 5.18,11.69 V 11.68 C 4.77,10.7 4.35,9.72 3.93,8.74 3.51,7.76 3.09,6.78 2.66,5.81 2.23,4.84 1.79,3.87 1.35,2.9 1.34,2.89 1.35,2.89 1.35,2.89 0.9,1.93 0.46,0.96 0,0"
         style="fill:#dde9af;fill-opacity:1;fill-rule:nonzero;stroke:none"
         id="path86"
         inkscape:connector-curvature="0"
         sodipodi:nodetypes="cccccccccccccccccccccscccccccccccccccccccccccccccccccccccccccccccccccccccccccccccsscssscccccccccccccccccccccccccccccccccccccccccccccccccccccccccssssscccccccccccccccccccccccccccsccccccccssccc"
         transform="translate(69.469981,-75.759993)" /><path
         d="m 0,0 c -2.52,-13.67 -6.09,-27.14 -10.7,-40.25 l -1.6,0.57 c 1.18,5.18 2.2,10.39 3.06,15.63 0.56,3.38 1.05,6.77 1.48,10.17 0.16,1.24 0.3,2.48 0.44,3.71 v 0.01 c 0.27,2.48 0.51,4.96 0.72,7.44 v 0.01 c 0.1,1.24 0.2,2.48 0.28,3.72 v 0.01 c 0.09,1.25 0.16,2.49 0.23,3.73 0.14,2.49 0.24,4.99 0.31,7.48 0.03,1.24 0.06,2.49 0.07,3.74 v 0.01 c 0.02,1.24 0.03,2.49 0.03,3.73 0,29.61 -4.79,59.25 -14.08,87.38 -1.08,3.31 -2.24,6.6 -3.46,9.87 v 0.01 c -0.61,1.63 -1.23,3.26 -1.87,4.87 v 0.01 c -0.96,2.43 -1.95,4.84 -2.98,7.24 v 0.01 c -1.37,3.2 -2.8,6.38 -4.29,9.52 v 0.01 c -0.75,1.57 -1.51,3.14 -2.29,4.69 0.01,0.01 0,0.01 0,0.01 -5.82,11.7 -12.49,22.97 -19.98,33.69 -14.08,20.15 -31.13,38.83 -39.59,61.9 -3.09,8.42 -4.89,17.09 -5.6,25.85 -0.24,2.9 -0.35,5.81 -0.35,8.72 0,0.93 0.01,1.86 0.03,2.8 v 0.06 c 0.03,0.92 0.06,1.83 0.11,2.75 v 0.06 c 0.05,0.91 0.1,1.83 0.17,2.74 1.96,27.13 13.12,54.32 28.02,77.54 17.18,26.76 39.03,50.04 59.25,74.58 v 0.01 c 0.85,1.02 1.69,2.04 2.52,3.07 3.35,4.11 6.65,8.25 9.86,12.46 v 0.01 c 0.81,1.05 1.6,2.1 2.39,3.16 v 0.01 c 0.8,1.06 1.59,2.12 2.36,3.19 v 0.01 c 0.79,1.06 1.56,2.13 2.33,3.21 v 0.01 c 0.48,0.67 0.95,1.34 1.42,2.03 1.41,2.05 2.8,4.17 4.16,6.26 1.82,2.79 3.58,5.54 5.3,8.04 h 105.84 c -2.95,-4.69 -6.16,-9.36 -9.57,-13.97 -0.68,-0.92 -1.37,-1.84 -2.07,-2.75 v -0.01 c -6.98,-9.14 -14.73,-17.95 -22.84,-25.93 -2.83,-2.79 -5.72,-5.52 -8.64,-8.22 -28.24,-26 -60.15,-47.95 -86.21,-76.19 -22.95,-24.88 -41.4,-56.66 -44.12,-89.7 -0.04,-0.54 -0.08,-1.07 -0.12,-1.61 -0.01,-0.02 -0.01,-0.04 0,-0.06 -0.04,-0.54 -0.07,-1.08 -0.1,-1.62 v -0.07 c -0.03,-0.54 -0.05,-1.08 -0.07,-1.62 v -0.06 c -0.02,-0.54 -0.04,-1.08 -0.05,-1.62 V 252 c -0.01,-0.56 -0.01,-1.12 -0.01,-1.69 0,-3.49 0.19,-6.98 0.57,-10.48 0.22,-2.12 0.53,-4.25 0.91,-6.38 4.33,-24.2 17.88,-45.52 28.25,-67.8 4.18,-8.98 7.83,-18.19 10.97,-27.57 C -0.1,109.94 4.62,80.24 4.62,50.55 4.62,49.42 4.61,48.3 4.6,47.17 V 47.16 C 4.59,46.03 4.57,44.91 4.54,43.78 V 43.77 C 4.51,42.64 4.48,41.52 4.44,40.39 V 40.38 C 4.39,39.26 4.35,38.13 4.29,37.01 V 37 C 4.24,35.87 4.18,34.75 4.11,33.62 V 33.61 C 4.04,32.49 3.96,31.36 3.88,30.24 V 30.23 C 3.8,29.11 3.71,27.98 3.61,26.86 V 26.85 C 3.42,24.6 3.2,22.36 2.96,20.11 V 20.1 C 2.84,18.99 2.71,17.87 2.57,16.75 V 16.74 C 2.29,14.5 1.99,12.26 1.66,10.03 V 10.02 C 1.5,8.91 1.33,7.8 1.15,6.68 V 6.67 C 0.97,5.56 0.79,4.45 0.6,3.34 V 3.33 C 0.41,2.22 0.21,1.11 0,0"
         style="fill:#dde9af;fill-opacity:1;fill-rule:nonzero;stroke:none"
         id="path90"
         inkscape:connector-curvature="0"
         transform="translate(55.620021,-61.819998)" /><path
         d="m 0,0 c -0.66,5.27 -1.48,10.52 -2.47,15.73 -1.86,9.9 -4.28,19.69 -7.25,29.31 -1.04,3.39 -2.15,6.76 -3.33,10.11 -0.39,1.11 -0.79,2.23 -1.2,3.34 -9.75,26.67 -23.65,51.84 -40.97,74.34 -1.45,1.87 -2.91,3.72 -4.41,5.56 -2.23,2.76 -4.52,5.48 -6.87,8.14 -3.89,4.45 -7.94,8.76 -12.12,12.94 -10.87,10.88 -22.66,20.84 -35.27,29.68 -20.13,14.12 -42.53,25.83 -58.38,44.63 -16.42,19.47 -23.78,44.28 -25.01,69.96 -0.12,2.61 -0.18,5.24 -0.19,7.88 0,0.91 0.01,1.81 0.02,2.72 v 0.11 c 0.02,0.87 0.04,1.74 0.07,2.6 -0.01,0.04 -0.01,0.08 0,0.12 0.03,0.87 0.06,1.74 0.1,2.6 0.55,11.79 2.24,23.57 4.79,34.9 7.28,32.32 20.59,62.81 31.45,94.1 v 0.01 c 0.43,1.24 0.86,2.49 1.29,3.74 v 0.01 c 0.43,1.25 0.85,2.51 1.26,3.76 v 0.01 c 0.42,1.25 0.83,2.51 1.24,3.77 1.62,5.04 3.16,10.1 4.57,15.21 v 0.01 c 0.1,0.34 0.19,0.69 0.28,1.05 v 0.01 c 0.19,0.71 0.38,1.45 0.56,2.17 v 0.01 c 0.45,1.83 0.89,3.59 1.31,4.84 h 86.42 c -0.75,-1 -1.51,-3.06 -2.29,-4.69 -1.14,-2.39 -2.31,-4.77 -3.5,-7.14 -0.59,-1.18 -1.19,-2.35 -1.8,-3.53 -0.01,-0.01 0,-0.01 0,-0.01 -0.61,-1.17 -1.22,-2.34 -1.85,-3.51 v -0.01 c -0.61,-1.16 -1.23,-2.33 -1.87,-3.49 v -0.01 c -0.62,-1.16 -1.25,-2.32 -1.9,-3.48 v -0.01 c -16.58,-30.15 -35.96,-58.78 -49.25,-90.56 -7.83,-18.73 -13.3,-39.24 -14.52,-59.56 -0.04,-0.69 -0.08,-1.39 -0.12,-2.08 v -0.09 c -0.03,-0.7 -0.06,-1.39 -0.08,-2.09 v -0.08 c -0.02,-0.69 -0.04,-1.38 -0.05,-2.08 v -0.09 c -0.02,-0.72 -0.02,-1.44 -0.02,-2.16 0,-2.97 0.1,-5.93 0.3,-8.87 1.08,-16.04 5.23,-31.59 13.39,-45.65 12.35,-21.25 32.38,-36.65 49.75,-54.04 20.51,-20.54 37.5,-44.47 50.44,-70.43 v -0.01 c 1,-2 1.97,-4 2.92,-6.02 0.47,-1.01 0.94,-2.03 1.4,-3.05 0.92,-2.03 1.82,-4.07 2.7,-6.12 v -0.01 c 0.87,-2.05 1.72,-4.11 2.54,-6.18 3.3,-8.3 6.21,-16.75 8.7,-25.33 0.62,-2.15 1.22,-4.3 1.79,-6.45 1.15,-4.31 2.19,-8.65 3.12,-13.02 0.23,-1.09 0.46,-2.19 0.68,-3.28 0.88,-4.37 1.65,-8.77 2.32,-13.18 1.85,-12.27 2.87,-24.65 3,-37.05 z"
         style="fill:#dde9af;fill-opacity:1;fill-rule:nonzero;stroke:none"
         id="path94"
         inkscape:connector-curvature="0"
         transform="translate(43.320017,-69.700025)" /><path
         d="M 0,0 C 1.14,-2.75 2.24,-5.52 3.28,-8.31 L 1.7,-8.9 c -2.42,4.73 -4.99,9.38 -7.7,13.94 -3.32,5.61 -6.86,11.1 -10.59,16.45 -1.35,1.94 -2.72,3.86 -4.13,5.77 -0.7,0.95 -1.41,1.89 -2.12,2.84 -1.43,1.89 -2.88,3.76 -4.36,5.6 -4.43,5.54 -9.07,10.92 -13.92,16.11 -2.42,2.6 -4.89,5.14 -7.41,7.64 -33.61,33.34 -75.74,58.15 -121.48,70.44 -23.74,6.38 -48.81,9.73 -70.12,21.97 -36.78,21.11 -55,64.74 -60.4,106.8 -1.01,7.85 -1.65,15.72 -2.07,23.61 -0.52,10.1 -0.66,20.22 -0.66,30.36 0,2.72 0.01,5.43 0.02,8.15 v 0.06 c 0.02,2.69 0.04,5.39 0.05,8.08 v 0.05 c 0.02,2.7 0.04,5.4 0.06,8.09 v 0.04 c 0.01,2.71 0.02,5.41 0.02,8.11 0,11.76 -0.18,23.51 -0.94,35.25 -0.11,1.68 -0.23,3.36 -0.36,5.03 -0.5,6.26 -1.22,12.62 -2.2,18.96 -2.14,13.94 -5.51,27.77 -10.45,40.15 h 93.71 c 0.01,-0.85 0.02,-1.73 0.02,-2.62 0,-7.43 -0.41,-15.96 -1.16,-23.79 -0.25,-2.64 -0.54,-5.27 -0.85,-7.9 -0.15,-1.32 -0.32,-2.63 -0.49,-3.94 v -0.01 c -0.33,-2.62 -0.7,-5.24 -1.08,-7.86 v -0.01 c -0.19,-1.3 -0.39,-2.61 -0.59,-3.92 v -0.01 c -0.2,-1.3 -0.41,-2.61 -0.62,-3.91 v -0.01 c -0.21,-1.3 -0.42,-2.6 -0.64,-3.9 v -0.02 c -0.22,-1.3 -0.44,-2.6 -0.67,-3.9 v -0.02 c -0.22,-1.3 -0.44,-2.59 -0.68,-3.89 v -0.03 c -0.22,-1.29 -0.45,-2.59 -0.69,-3.88 0,-0.01 -0.01,-0.02 0,-0.03 -4.91,-27.34 -10.62,-54.54 -11.93,-82.33 -0.04,-0.87 -0.08,-1.74 -0.1,-2.62 -0.03,-0.78 -0.06,-1.57 -0.08,-2.36 v -0.13 c -0.02,-0.79 -0.03,-1.58 -0.04,-2.37 -0.01,-0.04 -0.01,-0.08 0,-0.13 -0.01,-0.83 -0.02,-1.66 -0.02,-2.5 0.01,-2.46 0.05,-4.93 0.13,-7.41 1.34,-37.12 12.91,-74.72 41.04,-98.21 18.87,-15.75 42.97,-23.37 65.24,-33.77 27.89,-13.03 53.36,-31 75.28,-52.6 0.84,-0.83 1.68,-1.67 2.51,-2.51 15.82,-15.98 29.71,-33.88 41.22,-53.18 0.61,-1.02 1.21,-2.04 1.8,-3.06 1.78,-3.07 3.5,-6.17 5.16,-9.31 C -7.83,17.23 -5.23,11.91 -2.82,6.51 -1.85,4.35 -0.91,2.18 0,0"
         style="fill:#dde9af;fill-opacity:1;fill-rule:nonzero;stroke:none"
         id="path98"
         inkscape:connector-curvature="0"
         transform="translate(30.740005,-30.929985)" /><path
         d="m 0,0 c 4.17,-4.19 8.2,-8.52 12.09,-12.98 0.4,-0.46 0.79,-0.92 1.19,-1.38 l -1.29,-1.11 c -3.91,3.62 -7.92,7.13 -12.04,10.5 -6.59,5.41 -13.44,10.49 -20.52,15.23 -0.89,0.6 -1.77,1.19 -2.66,1.77 -1.78,1.16 -3.58,2.31 -5.39,3.43 -0.91,0.57 -1.81,1.12 -2.72,1.67 -1.82,1.1 -3.66,2.18 -5.51,3.24 -0.92,0.54 -1.85,1.06 -2.78,1.58 -0.93,0.51 -1.86,1.03 -2.8,1.54 -0.94,0.51 -1.87,1.01 -2.81,1.5 -2.83,1.5 -5.68,2.94 -8.56,4.33 -0.96,0.47 -1.92,0.93 -2.88,1.38 -1.93,0.91 -3.87,1.79 -5.82,2.66 -0.97,0.43 -1.95,0.86 -2.92,1.27 h -0.01 c -0.98,0.43 -1.96,0.84 -2.94,1.25 -2.95,1.22 -5.93,2.4 -8.92,3.53 -1,0.38 -1.99,0.74 -2.99,1.11 0,0 0,-0.01 -0.01,0 -1,0.36 -2,0.72 -3,1.07 h -0.01 c -1,0.35 -2.01,0.7 -3.02,1.04 -28.27,9.54 -58.06,14.56 -87.87,14.57 -7.56,0 -15.11,-0.33 -22.64,-0.98 -17.98,-1.56 -36.07,-4.9 -54.01,-4.9 -5.69,0 -11.36,0.34 -17,1.17 -0.8,0.12 -1.59,0.25 -2.39,0.39 h -0.03 c -0.64,0.12 -1.28,0.24 -1.92,0.36 -40.83,7.99 -72.18,42.25 -91.33,79.34 -19.45,37.68 -29.49,79.51 -47.11,118.09 -13.49,29.53 -33.15,58.22 -59.72,75.97 -0.01,-0.01 -0.01,-0.01 -0.01,0 -1.62,1.09 -3.27,2.13 -4.94,3.13 h -0.01 c -0.56,0.34 -1.12,0.67 -1.68,0.99 h -0.01 c -0.56,0.33 -1.13,0.64 -1.69,0.96 0,0 -0.01,-0.01 -0.01,0 -0.57,0.31 -1.14,0.62 -1.72,0.92 -0.58,0.31 -1.16,0.61 -1.74,0.9 -0.58,0.3 -1.17,0.59 -1.75,0.87 -0.59,0.28 -1.18,0.56 -1.78,0.84 -3.57,1.64 -7.24,3.08 -11.01,4.32 -16.52,5.41 -32.64,6.37 -50.64,5.05 v 69.05 h 125.49 c 2.03,0 4.06,-1.67 6.06,-2.74 2.34,-1.25 4.61,-2.58 6.82,-3.99 33.17,-21.16 52.28,-59.86 62.26,-98.34 10.65,-41.04 13.28,-83.92 25.89,-124.4 12.61,-40.49 38.14,-80.26 78.02,-94.66 23.12,-8.35 48.38,-7.28 72.87,-9.44 18.87,-1.67 37.52,-5.4 55.6,-11.01 27.11,-8.42 52.93,-21.06 76.27,-37.25 8.74,-6.07 17.14,-12.64 25.13,-19.68 1.77,-1.57 3.53,-3.15 5.26,-4.76 C -5.06,4.98 -2.51,2.52 0,0"
         style="fill:#dde9af;fill-opacity:1;fill-rule:nonzero;stroke:none"
         id="path102"
         inkscape:connector-curvature="0" /></g><rect
       style="fill:#dde9af;stroke-width:0.600001"
       id="rect1"
       width="9.7001572"
       height="7.7699685"
       x="65.776527"
       y="55.323009" /><path
       style="font-size:50.8px;font-family:UnifrakturCook;-inkscape-font-specification:UnifrakturCook;fill:#999999;stroke-width:0.264583"
       d="m 67.683505,53.242644 c -1.686719,-0.429948 -3.323828,-0.644922 -4.911328,-0.644922 -3.902604,0 -7.457943,1.322917 -10.666016,3.96875 0.01654,-0.165365 -0.04134,-0.595312 -0.173632,-1.289843 -0.115755,-0.711068 -0.157097,-1.149284 -0.124024,-1.314649 4.349089,-3.571875 9.078516,-6.366536 14.188281,-8.383984 6.680729,1.984375 12.824024,4.71289 18.429883,8.185547 -0.363802,0.595312 -0.818555,1.11621 -1.364258,1.562695 -0.545703,0.446484 -1.000456,0.959114 -1.364258,1.537891 -0.115755,0.314193 -0.173633,0.760677 -0.173633,1.339453 v 1.339453 l 0.173633,13.295312 c 0.04961,1.07487 0.248044,1.744597 0.595313,2.00918 l 2.505273,2.058789 -4.365625,5.977929 -5.680273,-4.812109 c 0.363802,-2.596224 0.545703,-5.994466 0.545703,-10.194726 h -9.276953 c -0.628385,5.853906 -1.517995,7.517111 -4.478021,11.58508 -2.943489,4.067969 -7.799669,6.373134 -7.799669,6.373134 l -3.85519,0.06175 c 0,0 2.880924,-3.305155 4.220414,-5.038969 1.205545,-1.560437 1.567348,-1.914505 3.429263,-4.820257 0.677995,-2.877344 1.016992,-5.688542 1.016992,-8.433594 0,-2.761589 -0.603581,-5.349544 -1.810742,-7.763867 4.018359,-2.000911 7.664648,-4.20026 10.938867,-6.598047 z m 7.51582,7.745891 c 2.833841,1e-6 -0.06396,-1.804793 -0.232717,-2.479161 -1.63711,-1.157553 -3.356902,-2.1084 -5.159375,-2.85254 -1.174089,0.876432 -2.067058,1.885156 -2.678907,3.026172 -0.611849,1.124479 -0.767734,0.08964 -0.883489,2.305526 z M 98.565341,77.228777 C 95.72107,80.370704 93.885523,82.388151 93.0587,83.28112 l -3.671093,-2.778125 c -1.207161,-0.942578 -2.414323,-1.876888 -3.621485,-2.802929 1.124479,-0.975651 1.860352,-1.876888 2.207618,-2.703711 0.347265,-0.826823 0.529166,-1.612305 0.545703,-2.356445 l 0.124023,-15.006836 c 0,-1.07487 -0.04961,-2.356446 -0.148828,-3.844727 -0.08268,-1.488281 -0.446484,-2.745052 -1.091406,-3.770312 l 8.185547,-4.440039 c -0.446485,1.984375 -0.711068,4.043164 -0.79375,6.176367 -0.06615,2.133203 -0.09922,4.299479 -0.09922,6.498828 l -0.09922,14.560351 c 0,1.240235 0.115755,1.943034 0.347266,2.108399 0.23151,0.165365 1.438671,0.93431 3.621484,2.306836 z m 13.369729,5.655468 -11.88145,-4.737695 c 0.44649,-2.480469 0.66973,-5.060156 0.66973,-7.739062 0,-2.695443 -0.25632,-5.506641 -0.768948,-8.433594 l 8.557618,-5.035351 v -0.07441 l 0.0496,0.0248 h 0.0248 l 9.64903,6.920508 -10.0459,10.566797 c 0.67799,0.810286 1.4304,1.25677 2.25722,1.339453 0.82683,0.08268 1.50482,0.124023 2.03399,0.124023 0.5457,0 1.18235,-0.0248 1.90996,-0.07441 0.74414,-0.06615 1.65365,-0.115756 2.72852,-0.148828 -0.87643,1.223698 -1.7446,2.439128 -2.6045,3.646289 l -2.57968,3.621484 z m -4.11758,-19.322851 c -0.95911,0 -1.43867,1.30638 -1.43867,3.919141 0,1.488281 0.24805,2.976562 0.74414,4.464843 0,0.148828 0.0248,0.272852 0.0744,0.372071 l 3.99356,-4.216797 c 0.28112,-0.297657 0.42168,-0.595313 0.42168,-0.892969 0,-0.297656 -0.14883,-0.677995 -0.44649,-1.141016 -0.28112,-0.463021 -0.57051,-0.843359 -0.86816,-1.141015 -1.0418,-0.909505 -1.86862,-1.364258 -2.48047,-1.364258 z m 17.41289,12.079883 0.29766,4.440039 c -1.91823,0.496093 -4.10932,1.430403 -6.57325,2.802929 0.77721,-4.034895 2.98483,-8.987564 6.62286,-14.858007 -1.14102,-1.984375 -2.14975,-3.613217 -3.02618,-4.886524 -0.31419,-0.446484 -0.77721,-0.686263 -1.38906,-0.719336 -0.61185,-0.04961 -1.19889,-0.07441 -1.76113,-0.07441 0.64492,-0.909505 1.42213,-1.81901 2.33164,-2.728515 0.90951,-0.909505 2.19935,-1.827279 3.86953,-2.75332 0.87643,1.785937 1.9513,3.861263 3.22461,6.225976 1.43867,-2.000911 2.96003,-4.076237 4.56406,-6.225976 2.13321,0.959114 4.00183,1.810741 5.60586,2.554882 l -3.175,5.705078 c -1.20716,-1.289843 -2.40605,-2.182812 -3.59668,-2.678906 -0.87643,1.124479 -1.60404,2.075326 -2.18281,2.852539 1.86862,3.323828 3.75378,6.391341 5.65547,9.202539 0.84336,1.289844 1.97611,1.984375 3.39824,2.083594 -2.23242,2.513541 -4.34082,4.613671 -6.32519,6.30039 -0.97565,-2.050521 -1.94304,-4.125846 -2.90215,-6.225976 -0.94258,-2.10013 -1.95131,-4.183724 -3.02618,-6.250781 -1.07487,2.149739 -1.6123,3.894336 -1.6123,5.233789 z"
       id="text1"
       mask="none"
       aria-label="Alex"
       sodipodi:nodetypes="cscccccscscccccccccccacscccsccccscccsccccccccssscsscccccccssccsccsccccsccsscccccccsccccccccccccscc" /><path
       id="svg_2"
       d="m 79.81425,64.8233 h -0.03761 v 0.03761 h -0.03761 v 0.03761 h -0.03762 v 0.03761 H 79.6638 v 0.03762 h -0.07524 -0.03761 v -0.03762 l 0.03761,-0.03761 V 64.86091 64.8233 h 0.03761 v -0.03761 h 0.03762 v -0.03761 l 0.03761,-0.03762 0.03762,-0.03761 v -0.03761 q 0,0 0.11285,-0.07523 0.07524,-0.11285 0.376154,-0.263304 0.300919,-0.150462 0.639453,-0.150462 0.376153,0 0.601844,0.11285 0.263305,0.11285 0.564225,0.338536 0.263306,0.22569 0.526612,0.564228 0.263306,0.338536 0.376151,0.714687 0.112851,0.413765 0.112851,0.827531 0,0.451382 -0.112851,0.827533 -0.11285,0.413766 -0.413766,0.827531 -0.225691,0.413767 -0.526612,0.677072 -0.300919,0.263306 -0.789918,0.526611 -0.488994,0.300921 -1.128452,0.451381 -0.639455,0.225691 -1.391757,0.300921 -0.714686,0.07524 -1.655064,0 -0.977993,0 -2.031214,-0.22569 -1.053231,-0.225708 -1.955993,-0.526629 -0.902763,-0.30092 -1.579834,-0.677072 -0.639455,-0.37615 -0.977992,-0.677072 -0.376151,-0.30092 -0.45138,-0.338536 -0.07524,-0.03761 -0.225692,0.07524 -0.11285,0.11285 -0.601841,0.488995 -0.488996,0.376152 -1.166067,0.67707 -0.677072,0.300923 -1.617449,0.601845 -0.902763,0.300919 -2.031215,0.488995 -1.128454,0.188075 -1.880754,0.22569 -0.714688,0.03762 -1.053224,-0.03761 -0.338536,0 -1.053223,-0.188075 -0.752302,-0.188076 -1.278913,-0.413766 -0.488996,-0.225691 -0.827531,-0.451382 -0.338536,-0.30092 -0.601842,-0.639455 -0.300924,-0.376152 -0.451384,-0.827533 -0.150461,-0.451381 -0.188075,-0.940377 -0.03762,-0.451381 0.03761,-0.752302 0.07523,-0.263305 0.225691,-0.639456 0.22569,-0.376151 0.338535,-0.488997 0.15046,-0.15046 0.15046,-0.188075 0,-0.03761 0.07524,-0.07523 0.07523,-0.03762 0.413766,-0.225691 0.338535,-0.188076 0.752301,-0.188076 0.451382,0 0.752303,0.112851 l 0.30092,0.11285 v 0.03762 h 0.03761 v 0.03762 h 0.03762 l 0.03761,0.03761 0.03762,0.03761 h 0.03761 v 0.03761 h 0.03762 v 0.03762 0.03762 h -0.07523 l -0.11285,-0.03762 h -0.03761 -0.03761 v -0.03762 h -0.03762 v -0.03761 h -0.150459 q -0.112851,-0.07523 -0.413767,-0.03761 -0.30092,0.03761 -0.526611,0.188076 -0.188075,0.188076 -0.338535,0.451381 -0.15046,0.263305 -0.15046,0.752302 0,0.52661 0.15046,0.714686 0.11285,0.188076 0.30092,0.300922 0.188076,0.11285 0.526611,0.11285 0.376151,0 0.902763,-0.225691 0.564225,-0.225691 1.429373,-0.714688 0.902762,-0.488996 1.767909,-1.015608 0.902762,-0.526609 1.542219,-0.82753 0.677072,-0.300922 1.128454,-0.376151 0.488996,-0.150461 1.090837,-0.11285 0.601841,0.03761 1.166067,0.188073 0.564225,0.22569 0.977993,0.488997 0.451381,0.263306 0.488996,0.300921 0.03761,0.03761 0.451382,-0.263305 0.413765,-0.300923 0.977991,-0.451382 0.564226,-0.22569 0.827533,-0.22569 0.263305,-0.07523 0.940376,-0.03761 0.677072,0.03761 1.203684,0.150459 0.488996,0.112851 1.203682,0.488996 0.714688,0.376152 2.068831,1.278914 1.354141,0.902761 1.843139,1.053222 0.451381,0.22569 0.865146,0.22569 0.413766,0 0.714687,-0.15046 0.300919,-0.150461 0.451381,-0.30092 0.15046,-0.188076 0.15046,-0.639458 0,-0.451381 -0.15046,-0.714686 -0.150462,-0.263305 -0.338536,-0.451381 -0.188076,-0.15046 -0.338536,-0.22569 -0.188076,-0.07523 -0.45138,-0.07523 -0.225691,0 -0.376152,0.11285 -0.11285,0.112838 -0.15046,0.112838 z"
       fill-rule="evenodd"
       stroke="#ffffff"
       stroke-width="0.187457"
       fill="#000000"
       style="stroke:none;stroke-width:0.481581;stroke-dasharray:none" /><path
       class="fil0"
       d="m 64.119606,54.573377 h 5.895363 0.06018 5.895362 c 0,0 2.233618,0.377285 2.645622,0.687442 0.412004,0.310166 1.407295,0.44673 0.962886,4.293641 -0.446723,3.84692 -3.951073,2.851623 -5.599091,1.992898 -1.648016,-0.858725 -2.816905,-4.052922 -2.918748,-4.740364 0.03241,-0.275439 -0.141192,-0.999918 -1.013808,-1.009175 -0.872615,0.0092 -1.046213,0.733736 -1.013807,1.009175 -0.10416,0.687442 -1.270732,3.881639 -2.918749,4.740364 -1.648018,0.858725 -5.152367,1.854022 -5.599091,-1.992898 -0.446723,-3.846911 0.548568,-3.983475 0.962887,-4.293641 0.412004,-0.310157 2.645621,-0.687442 2.645621,-0.687442 z m 3.633969,0.296272 h 4.647777 c 0,0 -0.997605,0.717532 -1.205923,1.178148 -0.493016,-0.685132 -1.65496,-0.851787 -2.219729,0.01386 -0.201373,-0.451351 -0.145822,-0.90733 -1.219811,-1.192034 z"
       id="path2"
       style="clip-rule:evenodd;fill-rule:evenodd;stroke-width:0.00231463;image-rendering:optimizeQuality;shape-rendering:geometricPrecision;text-rendering:geometricPrecision" /><text
       xml:space="preserve"
       style="font-style:normal;font-variant:normal;font-weight:600;font-stretch:normal;font-size:5.64444px;font-family:'Playfair Display';-inkscape-font-specification:'Playfair Display, Semi-Bold';font-variant-ligatures:normal;font-variant-caps:normal;font-variant-numeric:normal;font-variant-east-asian:normal;text-align:center;text-anchor:middle;fill:#1a1a1a;stroke-width:0.600001"
       x="59.123928"
       y="92.066216"
       id="text2"><tspan
         sodipodi:role="line"
         id="tspan1"
         style="font-style:normal;font-variant:normal;font-weight:600;font-stretch:normal;font-size:5.64444px;font-family:'Playfair Display';-inkscape-font-specification:'Playfair Display, Semi-Bold';font-variant-ligatures:normal;font-variant-caps:normal;font-variant-numeric:normal;font-variant-east-asian:normal;fill:#1a1a1a;stroke-width:0.6"
         x="59.123928"
         y="92.066216">Queens NYC</tspan></text><text
       xml:space="preserve"
       style="font-style:normal;font-variant:normal;font-weight:600;font-stretch:normal;font-size:5.64444px;font-family:'Playfair Display';-inkscape-font-specification:'Playfair Display, Semi-Bold';font-variant-ligatures:normal;font-variant-caps:normal;font-variant-numeric:normal;font-variant-east-asian:normal;text-align:center;text-anchor:middle;fill:#1a1a1a;stroke-width:0.600001"
       x="135.93498"
       y="92.066216"
       id="text3"><tspan
         sodipodi:role="line"
         id="tspan2"
         style="stroke-width:0.6"
         x="135.93498"
         y="92.066216">Est 1973</tspan></text></g></svg>
